<?xml version="1.0" encoding="UTF-8" standalone="no"?><!DOCTYPE svg PUBLIC "-//W3C//DTD SVG 1.1//EN" "http://www.w3.org/Graphics/SVG/1.1/DTD/svg11.dtd"><svg width="100%" height="100%" viewBox="0 0 3334 3334" version="1.1" xmlns="http://www.w3.org/2000/svg" xmlns:xlink="http://www.w3.org/1999/xlink" xml:space="preserve" xmlns:serif="http://www.serif.com/" style="fill-rule:evenodd;clip-rule:evenodd;stroke-linejoin:round;stroke-miterlimit:2;"><path d="M1666.667,208.333c-804.363,0 -1458.333,653.971 -1458.333,1458.333c0,804.365 653.971,1458.333 1458.333,1458.333c804.365,0 1458.333,-653.969 1458.333,-1458.333c0,-804.363 -653.969,-1458.333 -1458.333,-1458.333Z" style="fill:#fff;fill-rule:nonzero;"/><path d="M2085.344,928.074c-1.323,8.368 -2.01,16.953 -2.01,25.703c0,88.338 69.958,159.952 156.25,159.952c86.292,0 156.25,-71.615 156.25,-159.952c0,-88.341 -69.958,-159.954 -156.25,-159.954c-38.448,0 -73.656,14.219 -100.885,37.801l-405.76,-102.457l-146.656,600.531c-195.094,13.146 -370.552,73.625 -502.917,164.938c-37.583,-37.729 -89.069,-61 -145.865,-61c-115.059,0 -208.333,95.49 -208.333,213.271c0,81.979 45.173,153.146 111.424,188.844c-4.786,25.437 -7.257,51.396 -7.257,77.75c0,323.917 373.094,586.5 833.333,586.5c460.24,0 833.333,-262.583 833.333,-586.5c0,-26.354 -2.469,-52.312 -7.26,-77.75c66.25,-35.698 111.427,-106.865 111.427,-188.844c0,-117.781 -93.271,-213.271 -208.333,-213.271c-56.792,0 -108.281,23.271 -145.865,61c-144.208,-99.479 -339.562,-162.375 -555.729,-167.312l114.49,-468.841l276.615,69.592Zm-783.26,1038.749c86.292,-0 156.25,-71.615 156.25,-159.958c0,-88.344 -69.958,-159.958 -156.25,-159.958c-86.292,0 -156.25,71.615 -156.25,159.958c0,88.344 69.958,159.958 156.25,159.958Zm729.167,0c86.292,0 156.25,-71.615 156.25,-159.958c0,-88.344 -69.958,-159.958 -156.25,-159.958c-86.292,0 -156.25,71.615 -156.25,159.958c0,88.344 69.958,159.958 156.25,159.958Zm-700.281,168.906c-23.927,-16.333 -56.26,-9.719 -72.219,14.781c-15.958,24.51 -9.49,57.615 14.438,73.948c113.344,77.344 253.417,116.021 393.479,116.021c140.062,0 280.135,-38.677 393.469,-116.021c23.938,-16.333 30.406,-49.438 14.448,-73.948c-15.958,-24.5 -48.292,-31.115 -72.229,-14.781c-95.844,65.406 -215.76,98.115 -335.688,98.115c-71.115,0 -142.24,-11.5 -208.333,-34.5c-45.354,-15.792 -88.354,-37 -127.365,-63.615Z"/></svg>